<?xml version="1.0" encoding="iso-8859-1"?>
<!-- Generator: Adobe Illustrator 19.0.0, SVG Export Plug-In . SVG Version: 6.00 Build 0)  -->
<svg version="1.1" id="Layer_1" xmlns="http://www.w3.org/2000/svg" xmlns:xlink="http://www.w3.org/1999/xlink" x="0px" y="0px"
	 viewBox="0 0 512.001 512.001" style="enable-background:new 0 0 512.001 512.001;" xml:space="preserve">
<path style="fill:#083B25;" d="M453.121,292.465l-68.161-10.349c-17.724-2.996-39.544-18.661-48.596-34.195L244.802,90.966
	l-28.345,16.264l0.109,0.196v214.31l246.958,77.519h32.681v-56.68C496.205,318.609,476.815,296.06,453.121,292.465z"/>
<polygon style="fill:#FF6638;" points="138.895,333.893 138.895,421.042 8.171,421.042 8.171,355.68 "/>
<path style="fill:#0B4E31;" d="M448.219,324.775l-68.706-10.436c-27.158-4.586-57.181-25.589-71.386-49.947l-91.561-156.966
	l-0.109-0.196l-0.338,0.196c-37.964,20.829-51.832,68.412-31.003,106.376v0.403L138.895,323c20.981,0,51.298,19.663,69.033,30.873
	l48.237,30.459c12.582,7.941,36.69,14.924,51.581,14.924h155.779v-56.68C463.524,334.765,455.943,325.941,448.219,324.775z"/>
<path style="fill:#10744A;" d="M290.741,234.576c0,0.011-10.839,46.287-10.839,46.287l-4.924,21.014
	C272.026,313.489,259.814,323,247.831,323H138.895l-61.549,21.787L15.797,323v-99.165c0.185-5.523,1.46-24.827,8.508-40.688
	l13.018,8.148c20.382,12.604,56.669,22.909,80.635,22.909h67.159h93.5l0.174-0.098L290.741,234.576z"/>
<polygon style="fill:#FF6638;" points="503.831,388.361 503.831,421.042 471.15,421.042 449.363,404.702 471.15,388.361 
	496.205,388.361 "/>
<path style="fill:#FF883E;" d="M471.15,388.361v32.681H307.746c-20.981,0-51.298-8.78-69.033-19.979l-48.237-30.459
	c-12.582-7.952-36.69-14.924-51.581-14.924H8.171V323h7.626h123.098c20.981,0,51.298,8.769,69.033,19.979l48.237,30.459
	c12.582,7.941,36.69,14.924,51.581,14.924h155.779H471.15z"/>
<g>
	<path style="fill:#FFAB58;" d="M329.304,214.205l16.471,28.236l-28.236,16.471c0-0.011-19.353-6.111-19.353-6.111l2.892-22.125
		L329.304,214.205z"/>
	<polygon style="fill:#FFAB58;" points="285.98,139.943 302.451,168.169 274.215,184.64 253.419,179.015 257.755,156.404 	"/>
</g>
<path style="fill:#FFCD71;" d="M317.539,258.902c0,0.011-37.637,21.962-37.637,21.962l-59.784-102.498l37.637-21.962l16.46,28.236
	l-9.401,5.49l26.853,46.036l9.412-5.49L317.539,258.902z"/>
<path d="M504.376,380.216v-37.643c0-27.9-22.442-54.003-50.026-58.188l-68.095-10.333c-12.474-2.134-28.497-12.353-38.043-23.58
	l1.674-0.977c3.897-2.273,5.214-7.277,2.94-11.175l-16.467-28.23c-1.092-1.872-2.882-3.233-4.978-3.784
	c-2.094-0.55-4.324-0.248-6.196,0.843l-2.352,1.373L304.212,176.6l2.352-1.372c2.51-1.465,4.054-4.153,4.054-7.058
	c0-2.209,0-2.209-3.686-8.528l-13.892-23.818c-1.092-1.872-2.882-3.233-4.978-3.784c-2.095-0.55-4.324-0.248-6.196,0.843
	l-2.352,1.373l-27.657-47.41c-2.264-3.88-7.233-5.206-11.125-2.969l-28.619,16.429c-20.238,11.128-34.934,29.448-41.389,51.595
	c-5.252,18.021-4.539,36.836,1.882,54.134H117.96c-22.361,0-57.322-9.934-76.304-21.668l-13.021-8.148
	c-2.004-1.256-4.458-1.58-6.724-0.887c-2.265,0.693-4.117,2.333-5.078,4.497c-3.768,8.484-6.471,18.691-8.034,30.34
	c-1.046,7.797-1.348,12.374-1.174,15.247v89.439C3.368,315.135,0,318.668,0,322.997v98.043c0,4.513,3.658,8.17,8.17,8.17h130.723
	c4.512,0,8.17-3.657,8.17-8.17v-32.681c0-4.513-3.658-8.17-8.17-8.17s-8.17,3.657-8.17,8.17v24.511H16.342v-49.021h122.553
	c13.393,0,35.901,6.513,47.224,13.664l48.227,30.46c19.172,12.108,50.727,21.238,73.4,21.238h196.085c4.513,0,8.17-3.657,8.17-8.17
	v-32.681C512.001,384.03,508.633,380.498,504.376,380.216z M308.719,216.755l-14.114,8.233l-18.622-31.922l14.114-8.233
	L308.719,216.755z M291.275,165.231l-2.331,1.361c-0.041,0.024-28.25,16.479-28.25,16.479c-3.898,2.273-5.214,7.277-2.94,11.175
	l26.855,46.036c1.093,1.872,2.882,3.233,4.978,3.784c2.094,0.55,4.324,0.248,6.196-0.843l28.226-16.466
	c0.005-0.003,2.355-1.374,2.355-1.374l8.233,14.115l-51.752,30.188l-51.555-88.379l49.397-28.815
	c0.008-0.004,2.356-1.375,2.356-1.375C285.557,155.427,288.76,160.921,291.275,165.231z M186.413,156.475
	c5.241-17.984,17.185-32.857,33.633-41.882c0.046-0.025,0.092-0.051,0.137-0.077l21.648-12.426l23.568,40.402l-49.4,28.817
	c-3.898,2.273-5.214,7.277-2.94,11.175l13.74,23.554h-36.457C182.993,190.514,181.573,173.079,186.413,156.475z M28.513,195.419
	l4.514,2.825c21.526,13.308,59.627,24.134,84.934,24.134h118.368l34.877,59.787l-4.162,17.771
	c-2.056,7.94-11.015,14.892-19.213,14.892h-10.077c-4.512,0-8.17,3.657-8.17,8.17c0,4.513,3.658,8.17,8.17,8.17h10.077
	c15.781,0,31.184-11.981,35.068-27.277c0.012-0.049,0.024-0.098,0.036-0.148l4.122-17.598l46.857-27.333
	c11.888,15.277,32.277,28.42,49.685,31.363c0.046,0.008,0.09,0.015,0.136,0.022l68.165,10.344
	c19.589,2.971,36.136,22.22,36.136,42.033v37.616H307.746c-13.392,0-35.9-6.513-47.224-13.664l-48.227-30.459
	c-19.171-12.108-50.725-21.239-73.4-21.239H23.967V224.08C24.108,220.363,24.844,207.828,28.513,195.419z M495.661,412.87H307.746
	c-19.323,0-48.336-8.395-64.675-18.713l-48.227-30.46c-13.894-8.776-39.516-16.189-55.95-16.189H16.342v-16.34h122.553
	c19.324,0,48.337,8.395,64.675,18.714l48.227,30.459c13.895,8.776,39.517,16.189,55.95,16.189h187.914V412.87z"/>
<circle cx="89.873" cy="284.945" r="8.17"/>
<circle cx="57.193" cy="252.264" r="8.17"/>
<g>
</g>
<g>
</g>
<g>
</g>
<g>
</g>
<g>
</g>
<g>
</g>
<g>
</g>
<g>
</g>
<g>
</g>
<g>
</g>
<g>
</g>
<g>
</g>
<g>
</g>
<g>
</g>
<g>
</g>
</svg>
